<mxfile host="app.diagrams.net" agent="Mozilla/5.0 (Windows NT 10.0; Win64; x64) AppleWebKit/537.36 (KHTML, like Gecko) Chrome/128.0.0.0 Safari/537.36 Edg/128.0.0.0" version="24.7.14">
  <diagram name="Página-1" id="e96ZXy56uuHLu2xkgnJe">
    <mxGraphModel dx="1426" dy="749" grid="1" gridSize="10" guides="1" tooltips="1" connect="1" arrows="1" fold="1" page="1" pageScale="1" pageWidth="827" pageHeight="1169" math="0" shadow="0">
      <root>
        <mxCell id="0" />
        <mxCell id="1" parent="0" />
        <mxCell id="FM7CL1xY4V9U8OYrNsVD-1" value="TABUADA" style="rounded=0;whiteSpace=wrap;html=1;" parent="1" vertex="1">
          <mxGeometry x="279" width="270" height="50" as="geometry" />
        </mxCell>
        <mxCell id="FM7CL1xY4V9U8OYrNsVD-21" style="edgeStyle=orthogonalEdgeStyle;rounded=0;orthogonalLoop=1;jettySize=auto;html=1;exitX=0.5;exitY=1;exitDx=0;exitDy=0;entryX=0.5;entryY=0;entryDx=0;entryDy=0;" parent="1" source="FM7CL1xY4V9U8OYrNsVD-2" target="FM7CL1xY4V9U8OYrNsVD-3" edge="1">
          <mxGeometry relative="1" as="geometry" />
        </mxCell>
        <mxCell id="FM7CL1xY4V9U8OYrNsVD-2" value="INICIO" style="ellipse;whiteSpace=wrap;html=1;" parent="1" vertex="1">
          <mxGeometry x="324" y="60" width="180" height="80" as="geometry" />
        </mxCell>
        <mxCell id="FM7CL1xY4V9U8OYrNsVD-3" value="INTEIRO NUMERO, RESULTADO, CONTADOR" style="rounded=0;whiteSpace=wrap;html=1;" parent="1" vertex="1">
          <mxGeometry x="324" y="170" width="180" height="60" as="geometry" />
        </mxCell>
        <mxCell id="HzNkHr0SK3gTeDUPaL9f-2" value="" style="edgeStyle=orthogonalEdgeStyle;rounded=0;orthogonalLoop=1;jettySize=auto;html=1;" edge="1" parent="1" source="FM7CL1xY4V9U8OYrNsVD-4" target="kIY3HxUJdaBQ4Pe8dxOL-1">
          <mxGeometry relative="1" as="geometry" />
        </mxCell>
        <mxCell id="FM7CL1xY4V9U8OYrNsVD-4" value="ESCREVA &quot;INFORME UM NÚMERO PARA VER SUA TABUADA: &quot;" style="shape=manualInput;whiteSpace=wrap;html=1;" parent="1" vertex="1">
          <mxGeometry x="324" y="260" width="180" height="100" as="geometry" />
        </mxCell>
        <mxCell id="FM7CL1xY4V9U8OYrNsVD-34" style="edgeStyle=orthogonalEdgeStyle;rounded=0;orthogonalLoop=1;jettySize=auto;html=1;exitX=0;exitY=0;exitDx=100;exitDy=60;exitPerimeter=0;entryX=0.5;entryY=0;entryDx=0;entryDy=0;" parent="1" edge="1">
          <mxGeometry relative="1" as="geometry">
            <mxPoint x="420" y="1010" as="sourcePoint" />
          </mxGeometry>
        </mxCell>
        <mxCell id="FM7CL1xY4V9U8OYrNsVD-23" style="edgeStyle=orthogonalEdgeStyle;rounded=0;orthogonalLoop=1;jettySize=auto;html=1;exitX=0.5;exitY=1;exitDx=0;exitDy=0;entryX=0.5;entryY=0.163;entryDx=0;entryDy=0;entryPerimeter=0;" parent="1" source="FM7CL1xY4V9U8OYrNsVD-3" target="FM7CL1xY4V9U8OYrNsVD-4" edge="1">
          <mxGeometry relative="1" as="geometry" />
        </mxCell>
        <mxCell id="FM7CL1xY4V9U8OYrNsVD-26" style="edgeStyle=orthogonalEdgeStyle;rounded=0;orthogonalLoop=1;jettySize=auto;html=1;exitX=0.5;exitY=1;exitDx=0;exitDy=0;entryX=0;entryY=0;entryDx=100;entryDy=0;entryPerimeter=0;" parent="1" edge="1">
          <mxGeometry relative="1" as="geometry">
            <mxPoint x="414" y="520" as="sourcePoint" />
          </mxGeometry>
        </mxCell>
        <mxCell id="FM7CL1xY4V9U8OYrNsVD-31" style="edgeStyle=orthogonalEdgeStyle;rounded=0;orthogonalLoop=1;jettySize=auto;html=1;exitX=0;exitY=0;exitDx=100;exitDy=60;exitPerimeter=0;entryX=0.55;entryY=-0.05;entryDx=0;entryDy=0;entryPerimeter=0;" parent="1" edge="1">
          <mxGeometry relative="1" as="geometry">
            <mxPoint x="422" y="720" as="sourcePoint" />
          </mxGeometry>
        </mxCell>
        <mxCell id="FM7CL1xY4V9U8OYrNsVD-32" style="edgeStyle=orthogonalEdgeStyle;rounded=0;orthogonalLoop=1;jettySize=auto;html=1;exitX=0.5;exitY=1;exitDx=0;exitDy=0;entryX=0.511;entryY=-0.017;entryDx=0;entryDy=0;entryPerimeter=0;" parent="1" edge="1">
          <mxGeometry relative="1" as="geometry">
            <mxPoint x="414" y="820" as="sourcePoint" />
          </mxGeometry>
        </mxCell>
        <mxCell id="FM7CL1xY4V9U8OYrNsVD-36" style="edgeStyle=orthogonalEdgeStyle;rounded=0;orthogonalLoop=1;jettySize=auto;html=1;exitX=0;exitY=0;exitDx=100;exitDy=60;exitPerimeter=0;entryX=0;entryY=0;entryDx=100;entryDy=0;entryPerimeter=0;" parent="1" edge="1">
          <mxGeometry relative="1" as="geometry">
            <mxPoint x="422" y="910" as="sourcePoint" />
          </mxGeometry>
        </mxCell>
        <mxCell id="FM7CL1xY4V9U8OYrNsVD-37" style="edgeStyle=orthogonalEdgeStyle;rounded=0;orthogonalLoop=1;jettySize=auto;html=1;exitX=0.5;exitY=1;exitDx=0;exitDy=0;entryX=0;entryY=0;entryDx=100;entryDy=0;entryPerimeter=0;" parent="1" edge="1">
          <mxGeometry relative="1" as="geometry">
            <mxPoint x="416" y="1100" as="sourcePoint" />
          </mxGeometry>
        </mxCell>
        <mxCell id="FM7CL1xY4V9U8OYrNsVD-38" style="edgeStyle=orthogonalEdgeStyle;rounded=0;orthogonalLoop=1;jettySize=auto;html=1;exitX=0;exitY=0;exitDx=100;exitDy=60;exitPerimeter=0;entryX=0;entryY=0;entryDx=100;entryDy=0;entryPerimeter=0;" parent="1" edge="1">
          <mxGeometry relative="1" as="geometry">
            <mxPoint x="420" y="1200" as="sourcePoint" />
          </mxGeometry>
        </mxCell>
        <mxCell id="kIY3HxUJdaBQ4Pe8dxOL-50" value="" style="edgeStyle=orthogonalEdgeStyle;rounded=0;orthogonalLoop=1;jettySize=auto;html=1;" parent="1" source="kIY3HxUJdaBQ4Pe8dxOL-1" target="kIY3HxUJdaBQ4Pe8dxOL-24" edge="1">
          <mxGeometry relative="1" as="geometry" />
        </mxCell>
        <mxCell id="kIY3HxUJdaBQ4Pe8dxOL-1" value="LEIA NUM" style="rounded=0;whiteSpace=wrap;html=1;" parent="1" vertex="1">
          <mxGeometry x="326" y="420" width="176" height="60" as="geometry" />
        </mxCell>
        <mxCell id="HzNkHr0SK3gTeDUPaL9f-3" value="" style="edgeStyle=orthogonalEdgeStyle;rounded=0;orthogonalLoop=1;jettySize=auto;html=1;" edge="1" parent="1" source="kIY3HxUJdaBQ4Pe8dxOL-2" target="kIY3HxUJdaBQ4Pe8dxOL-3">
          <mxGeometry relative="1" as="geometry" />
        </mxCell>
        <mxCell id="kIY3HxUJdaBQ4Pe8dxOL-2" value="ESCREVA &quot;TABUADA DE MULTIPLICAÇÃO:&quot;" style="shape=display;whiteSpace=wrap;html=1;" parent="1" vertex="1">
          <mxGeometry x="326" y="630" width="176" height="60" as="geometry" />
        </mxCell>
        <mxCell id="HzNkHr0SK3gTeDUPaL9f-4" value="" style="edgeStyle=orthogonalEdgeStyle;rounded=0;orthogonalLoop=1;jettySize=auto;html=1;" edge="1" parent="1" source="kIY3HxUJdaBQ4Pe8dxOL-3" target="kIY3HxUJdaBQ4Pe8dxOL-4">
          <mxGeometry relative="1" as="geometry" />
        </mxCell>
        <mxCell id="kIY3HxUJdaBQ4Pe8dxOL-3" value="PARA (CONTADOR =1, CONTADOR &amp;lt;= 10, CONTADOR++)" style="rhombus;whiteSpace=wrap;html=1;" parent="1" vertex="1">
          <mxGeometry x="314" y="740" width="200" height="160" as="geometry" />
        </mxCell>
        <mxCell id="HzNkHr0SK3gTeDUPaL9f-5" value="" style="edgeStyle=orthogonalEdgeStyle;rounded=0;orthogonalLoop=1;jettySize=auto;html=1;" edge="1" parent="1" source="kIY3HxUJdaBQ4Pe8dxOL-4" target="kIY3HxUJdaBQ4Pe8dxOL-6">
          <mxGeometry relative="1" as="geometry" />
        </mxCell>
        <mxCell id="kIY3HxUJdaBQ4Pe8dxOL-4" value="RESULTADO = NUMERO * CONTADOR" style="rounded=0;whiteSpace=wrap;html=1;" parent="1" vertex="1">
          <mxGeometry x="326" y="940" width="176" height="60" as="geometry" />
        </mxCell>
        <mxCell id="HzNkHr0SK3gTeDUPaL9f-6" value="" style="edgeStyle=orthogonalEdgeStyle;rounded=0;orthogonalLoop=1;jettySize=auto;html=1;" edge="1" parent="1" source="kIY3HxUJdaBQ4Pe8dxOL-6" target="kIY3HxUJdaBQ4Pe8dxOL-7">
          <mxGeometry relative="1" as="geometry" />
        </mxCell>
        <mxCell id="kIY3HxUJdaBQ4Pe8dxOL-6" value="ESCREVA (NUMERO, &quot; X &quot;, CONTADOR, &quot; = &quot;, RESULTADO" style="shape=display;whiteSpace=wrap;html=1;fontSize=11;" parent="1" vertex="1">
          <mxGeometry x="323" y="1050" width="182" height="70" as="geometry" />
        </mxCell>
        <mxCell id="HzNkHr0SK3gTeDUPaL9f-7" value="" style="edgeStyle=orthogonalEdgeStyle;rounded=0;orthogonalLoop=1;jettySize=auto;html=1;" edge="1" parent="1" source="kIY3HxUJdaBQ4Pe8dxOL-7" target="kIY3HxUJdaBQ4Pe8dxOL-16">
          <mxGeometry relative="1" as="geometry" />
        </mxCell>
        <mxCell id="kIY3HxUJdaBQ4Pe8dxOL-7" value="ESCREVA &quot;TABUADA DE ADIÇÃO:&quot;" style="shape=display;whiteSpace=wrap;html=1;" parent="1" vertex="1">
          <mxGeometry x="326" y="1180" width="176" height="60" as="geometry" />
        </mxCell>
        <mxCell id="HzNkHr0SK3gTeDUPaL9f-8" value="" style="edgeStyle=orthogonalEdgeStyle;rounded=0;orthogonalLoop=1;jettySize=auto;html=1;" edge="1" parent="1" source="kIY3HxUJdaBQ4Pe8dxOL-16" target="kIY3HxUJdaBQ4Pe8dxOL-17">
          <mxGeometry relative="1" as="geometry" />
        </mxCell>
        <mxCell id="kIY3HxUJdaBQ4Pe8dxOL-16" value="PARA (CONTADOR =1, CONTADOR &amp;lt;= 10, CONTADOR++" style="rhombus;whiteSpace=wrap;html=1;" parent="1" vertex="1">
          <mxGeometry x="326" y="1290" width="176" height="100" as="geometry" />
        </mxCell>
        <mxCell id="HzNkHr0SK3gTeDUPaL9f-9" value="" style="edgeStyle=orthogonalEdgeStyle;rounded=0;orthogonalLoop=1;jettySize=auto;html=1;" edge="1" parent="1" source="kIY3HxUJdaBQ4Pe8dxOL-17" target="kIY3HxUJdaBQ4Pe8dxOL-18">
          <mxGeometry relative="1" as="geometry" />
        </mxCell>
        <mxCell id="kIY3HxUJdaBQ4Pe8dxOL-17" value="RESULTADO = NUMERO + CONTADOR" style="rounded=0;whiteSpace=wrap;html=1;" parent="1" vertex="1">
          <mxGeometry x="326" y="1450" width="176" height="60" as="geometry" />
        </mxCell>
        <mxCell id="HzNkHr0SK3gTeDUPaL9f-10" value="" style="edgeStyle=orthogonalEdgeStyle;rounded=0;orthogonalLoop=1;jettySize=auto;html=1;" edge="1" parent="1" source="kIY3HxUJdaBQ4Pe8dxOL-18" target="kIY3HxUJdaBQ4Pe8dxOL-19">
          <mxGeometry relative="1" as="geometry" />
        </mxCell>
        <mxCell id="kIY3HxUJdaBQ4Pe8dxOL-18" value="ESCREVA (NUMERO, &quot; + &quot;, CONTADOR, &quot; = &quot;, RESULTADO" style="shape=display;whiteSpace=wrap;html=1;fontSize=11;" parent="1" vertex="1">
          <mxGeometry x="326" y="1560" width="176" height="70" as="geometry" />
        </mxCell>
        <mxCell id="HzNkHr0SK3gTeDUPaL9f-11" value="" style="edgeStyle=orthogonalEdgeStyle;rounded=0;orthogonalLoop=1;jettySize=auto;html=1;" edge="1" parent="1" source="kIY3HxUJdaBQ4Pe8dxOL-19" target="kIY3HxUJdaBQ4Pe8dxOL-20">
          <mxGeometry relative="1" as="geometry" />
        </mxCell>
        <mxCell id="kIY3HxUJdaBQ4Pe8dxOL-19" value="ESCREVA &quot;TABUADA DE SUBTRAÇÃO:&quot;" style="shape=display;whiteSpace=wrap;html=1;" parent="1" vertex="1">
          <mxGeometry x="326" y="1680" width="176" height="60" as="geometry" />
        </mxCell>
        <mxCell id="HzNkHr0SK3gTeDUPaL9f-12" value="" style="edgeStyle=orthogonalEdgeStyle;rounded=0;orthogonalLoop=1;jettySize=auto;html=1;" edge="1" parent="1" source="kIY3HxUJdaBQ4Pe8dxOL-20" target="kIY3HxUJdaBQ4Pe8dxOL-21">
          <mxGeometry relative="1" as="geometry" />
        </mxCell>
        <mxCell id="kIY3HxUJdaBQ4Pe8dxOL-20" value="PARA (CONTADOR =1, CONTADOR &amp;lt;= 10, CONTADOR++" style="rhombus;whiteSpace=wrap;html=1;" parent="1" vertex="1">
          <mxGeometry x="318" y="1790" width="192" height="100" as="geometry" />
        </mxCell>
        <mxCell id="kIY3HxUJdaBQ4Pe8dxOL-54" value="" style="edgeStyle=orthogonalEdgeStyle;rounded=0;orthogonalLoop=1;jettySize=auto;html=1;" parent="1" source="kIY3HxUJdaBQ4Pe8dxOL-21" target="kIY3HxUJdaBQ4Pe8dxOL-22" edge="1">
          <mxGeometry relative="1" as="geometry" />
        </mxCell>
        <mxCell id="kIY3HxUJdaBQ4Pe8dxOL-21" value="RESULTADO = NUMERO - CONTADOR" style="rounded=0;whiteSpace=wrap;html=1;" parent="1" vertex="1">
          <mxGeometry x="326" y="1940" width="176" height="60" as="geometry" />
        </mxCell>
        <mxCell id="kIY3HxUJdaBQ4Pe8dxOL-55" value="" style="edgeStyle=orthogonalEdgeStyle;rounded=0;orthogonalLoop=1;jettySize=auto;html=1;" parent="1" source="kIY3HxUJdaBQ4Pe8dxOL-22" target="kIY3HxUJdaBQ4Pe8dxOL-23" edge="1">
          <mxGeometry relative="1" as="geometry" />
        </mxCell>
        <mxCell id="kIY3HxUJdaBQ4Pe8dxOL-22" value="ESCREVA (NUMERO, &quot;&amp;nbsp; -&amp;nbsp; &quot;, CONTADOR, &quot; = &quot;, RESULTADO" style="shape=display;whiteSpace=wrap;html=1;fontSize=11;" parent="1" vertex="1">
          <mxGeometry x="326" y="2070" width="176" height="70" as="geometry" />
        </mxCell>
        <mxCell id="HzNkHr0SK3gTeDUPaL9f-13" value="" style="edgeStyle=orthogonalEdgeStyle;rounded=0;orthogonalLoop=1;jettySize=auto;html=1;" edge="1" parent="1" source="kIY3HxUJdaBQ4Pe8dxOL-23" target="kIY3HxUJdaBQ4Pe8dxOL-26">
          <mxGeometry relative="1" as="geometry" />
        </mxCell>
        <mxCell id="kIY3HxUJdaBQ4Pe8dxOL-23" value="ESCREVA &quot;TABUADA DE DIVISÃO:&quot;" style="shape=display;whiteSpace=wrap;html=1;" parent="1" vertex="1">
          <mxGeometry x="321" y="2170" width="176" height="60" as="geometry" />
        </mxCell>
        <mxCell id="kIY3HxUJdaBQ4Pe8dxOL-51" value="" style="edgeStyle=orthogonalEdgeStyle;rounded=0;orthogonalLoop=1;jettySize=auto;html=1;" parent="1" source="kIY3HxUJdaBQ4Pe8dxOL-24" target="kIY3HxUJdaBQ4Pe8dxOL-2" edge="1">
          <mxGeometry relative="1" as="geometry" />
        </mxCell>
        <mxCell id="kIY3HxUJdaBQ4Pe8dxOL-24" value="LIMPA TELA" style="rounded=0;whiteSpace=wrap;html=1;" parent="1" vertex="1">
          <mxGeometry x="326" y="525" width="176" height="60" as="geometry" />
        </mxCell>
        <mxCell id="kIY3HxUJdaBQ4Pe8dxOL-56" style="edgeStyle=orthogonalEdgeStyle;rounded=0;orthogonalLoop=1;jettySize=auto;html=1;exitX=0.5;exitY=1;exitDx=0;exitDy=0;entryX=0.5;entryY=0;entryDx=0;entryDy=0;" parent="1" source="kIY3HxUJdaBQ4Pe8dxOL-26" target="kIY3HxUJdaBQ4Pe8dxOL-30" edge="1">
          <mxGeometry relative="1" as="geometry" />
        </mxCell>
        <mxCell id="kIY3HxUJdaBQ4Pe8dxOL-26" value="PARA (CONTADOR =1, CONTADOR &amp;lt;= 10, CONTADOR++" style="rhombus;whiteSpace=wrap;html=1;" parent="1" vertex="1">
          <mxGeometry x="321" y="2280" width="176" height="100" as="geometry" />
        </mxCell>
        <mxCell id="HzNkHr0SK3gTeDUPaL9f-19" value="" style="edgeStyle=orthogonalEdgeStyle;rounded=0;orthogonalLoop=1;jettySize=auto;html=1;entryX=0;entryY=0.5;entryDx=0;entryDy=0;" edge="1" parent="1" source="kIY3HxUJdaBQ4Pe8dxOL-28" target="kIY3HxUJdaBQ4Pe8dxOL-47">
          <mxGeometry relative="1" as="geometry" />
        </mxCell>
        <mxCell id="kIY3HxUJdaBQ4Pe8dxOL-28" value="ESCREVA (NUMERO, &quot; / &quot;, CONTADOR, &quot; = &quot;, RESULTADO" style="shape=display;whiteSpace=wrap;html=1;fontSize=11;" parent="1" vertex="1">
          <mxGeometry x="130.5" y="2710" width="176" height="70" as="geometry" />
        </mxCell>
        <mxCell id="HzNkHr0SK3gTeDUPaL9f-15" value="" style="edgeStyle=orthogonalEdgeStyle;rounded=0;orthogonalLoop=1;jettySize=auto;html=1;exitX=0;exitY=0.5;exitDx=0;exitDy=0;" edge="1" parent="1" source="kIY3HxUJdaBQ4Pe8dxOL-30" target="HzNkHr0SK3gTeDUPaL9f-14">
          <mxGeometry relative="1" as="geometry" />
        </mxCell>
        <mxCell id="HzNkHr0SK3gTeDUPaL9f-16" value="" style="edgeStyle=orthogonalEdgeStyle;rounded=0;orthogonalLoop=1;jettySize=auto;html=1;" edge="1" parent="1" source="kIY3HxUJdaBQ4Pe8dxOL-30" target="kIY3HxUJdaBQ4Pe8dxOL-32">
          <mxGeometry relative="1" as="geometry" />
        </mxCell>
        <mxCell id="kIY3HxUJdaBQ4Pe8dxOL-30" value="SE (CONTADOR != 0)" style="rhombus;whiteSpace=wrap;html=1;" parent="1" vertex="1">
          <mxGeometry x="321" y="2440" width="176" height="100" as="geometry" />
        </mxCell>
        <mxCell id="HzNkHr0SK3gTeDUPaL9f-18" value="" style="edgeStyle=orthogonalEdgeStyle;rounded=0;orthogonalLoop=1;jettySize=auto;html=1;entryX=1;entryY=0.5;entryDx=0;entryDy=0;" edge="1" parent="1" source="kIY3HxUJdaBQ4Pe8dxOL-32" target="kIY3HxUJdaBQ4Pe8dxOL-47">
          <mxGeometry relative="1" as="geometry" />
        </mxCell>
        <mxCell id="kIY3HxUJdaBQ4Pe8dxOL-32" value="ESCREVA (NUMERO, &quot; / &quot;, CONTADOR, &quot; = DIVISÃO POR ZERO!&quot;" style="shape=display;whiteSpace=wrap;html=1;fontSize=11;" parent="1" vertex="1">
          <mxGeometry x="505" y="2640" width="250" height="70" as="geometry" />
        </mxCell>
        <mxCell id="kIY3HxUJdaBQ4Pe8dxOL-47" value="FIM" style="ellipse;whiteSpace=wrap;html=1;" parent="1" vertex="1">
          <mxGeometry x="306.5" y="2810" width="224" height="80" as="geometry" />
        </mxCell>
        <mxCell id="HzNkHr0SK3gTeDUPaL9f-17" value="" style="edgeStyle=orthogonalEdgeStyle;rounded=0;orthogonalLoop=1;jettySize=auto;html=1;" edge="1" parent="1" source="HzNkHr0SK3gTeDUPaL9f-14" target="kIY3HxUJdaBQ4Pe8dxOL-28">
          <mxGeometry relative="1" as="geometry" />
        </mxCell>
        <mxCell id="HzNkHr0SK3gTeDUPaL9f-14" value="&#xa;&lt;span style=&quot;color: rgb(0, 0, 0); font-family: Helvetica; font-size: 12px; font-style: normal; font-variant-ligatures: normal; font-variant-caps: normal; font-weight: 400; letter-spacing: normal; orphans: 2; text-align: center; text-indent: 0px; text-transform: none; widows: 2; word-spacing: 0px; -webkit-text-stroke-width: 0px; white-space: normal; background-color: rgb(251, 251, 251); text-decoration-thickness: initial; text-decoration-style: initial; text-decoration-color: initial; display: inline !important; float: none;&quot;&gt;RESULTADO = NUMERO&amp;nbsp; / CONTADOR&lt;/span&gt;&#xa;&#xa;" style="whiteSpace=wrap;html=1;" vertex="1" parent="1">
          <mxGeometry x="100" y="2590" width="237" height="60" as="geometry" />
        </mxCell>
      </root>
    </mxGraphModel>
  </diagram>
</mxfile>
